# xmcd
#
# Track frame offsets:
#	183
#	15700
#	34943
#	67570
#	79368
#	97455
#	111990
#	127970
#	164295
#
# Disc length: 2338 seconds
# Revision: 7
# Processed by: cddbd v1.5.2PL0 Copyright (c) Steve Scherf et al.
# Submitted via: dBpowerAMP V12.0
#
DISCID=73092009
DTITLE=Taste - Taste
DYEAR=1969
DGENRE=Blues
TTITLE0=Blister on the Moon
TTITLE1=Leaving Blues
TTITLE2=Sugar Mama
TTITLE3=Hail
TTITLE4=Born on the Wrong Side of Time
TTITLE5=Dual Carriageway Pain
TTITLE6=Same Old Story
TTITLE7=Catfish
TTITLE8=I'm Moving On
EXTD=
EXTT0=
EXTT1=
EXTT2=
EXTT3=
EXTT4=
EXTT5=
EXTT6=
EXTT7=
EXTT8=
PLAYORDER=
